<svg width="1440" height="1024" viewBox="0 0 1440 1024" fill="none" xmlns="http://www.w3.org/2000/svg">
<g clip-path="url(#clip0_1_2)">
<mask id="mask0_1_2" style="mask-type:luminance" maskUnits="userSpaceOnUse" x="0" y="0" width="1440" height="1024">
<path d="M1440 0H0V1024H1440V0Z" fill="white"/>
</mask>
<g mask="url(#mask0_1_2)">
<g opacity="0.65">
<g opacity="0.5" filter="url(#filter0_f_1_2)">
<path d="M718.833 587.794C973.782 588.426 1180.58 540.115 1180.73 479.888C1180.88 419.661 974.323 370.325 719.374 369.692C464.424 369.06 257.626 417.371 257.476 477.598C257.327 537.825 463.883 587.161 718.833 587.794Z" fill="url(#paint0_radial_1_2)"/>
</g>
<path opacity="0.5" d="M720.084 585.503C936.49 586.039 1112.02 546.229 1112.14 496.583C1112.27 446.937 936.936 406.256 720.53 405.719C504.124 405.182 328.592 444.993 328.469 494.639C328.346 544.285 503.678 584.966 720.084 585.503Z" fill="url(#paint1_radial_1_2)"/>
<path opacity="0.5" d="M618.072 581.481C834.478 582.017 1010.01 542.207 1010.13 492.561C1010.26 442.915 834.924 402.234 618.518 401.697C402.112 401.161 226.58 440.971 226.457 490.617C226.334 540.263 401.666 580.944 618.072 581.481Z" fill="url(#paint2_radial_1_2)"/>
</g>
<g filter="url(#filter1_i_1_2)">
<path d="M713.595 499.73C338.619 499.73 124.112 288.373 20.1777 114.231C-24.1277 39.997 -99.5352 -16 -185.985 -16C-298.107 -16 -389 74.8928 -389 187.015V820.702C-389 932.823 -298.107 1023.72 -185.985 1023.72C-99.5352 1023.72 -24.1276 967.719 20.1777 893.485C124.112 719.343 338.619 507.986 713.595 507.986C1088.57 507.986 1316.07 719.343 1420 893.485C1464.31 967.719 1539.71 1023.72 1626.16 1023.72C1738.28 1023.72 1829.18 932.823 1829.18 820.702V187.015C1829.18 74.8928 1738.28 -16 1626.16 -16C1539.71 -16 1464.31 39.997 1420 114.231C1316.07 288.373 1088.57 499.73 713.595 499.73Z" fill="url(#paint3_radial_1_2)"/>
</g>
<path d="M559 486.5C623.304 497.014 723.5 512 909.503 481.376" stroke="url(#paint4_linear_1_2)" stroke-width="2.66355"/>
<g filter="url(#filter2_f_1_2)">
<path d="M559 486.5C623.304 497.014 723.5 512 909.503 481.376" stroke="url(#paint5_linear_1_2)" stroke-width="2.66355"/>
</g>
<g opacity="0.5" filter="url(#filter3_f_1_2)">
<path d="M470.909 478.322C567.557 494.125 718.152 516.649 997.712 470.621" stroke="url(#paint6_linear_1_2)" stroke-width="4.0033"/>
</g>
<g filter="url(#filter4_f_1_2)">
<path d="M-207.987 50.0541C-90.9101 203.333 178.81 509.257 321.081 506.716" stroke="url(#paint7_linear_1_2)" stroke-width="14.3922"/>
</g>
<g filter="url(#filter5_f_1_2)">
<path d="M-354.703 352.061C-176.672 426.266 209.875 556.343 331.814 483.008" stroke="url(#paint8_linear_1_2)" stroke-width="14.3922"/>
</g>
<g filter="url(#filter6_f_1_2)">
<path d="M-358.514 594.929C-165.86 604.21 241.886 595.168 331.642 484.755" stroke="url(#paint9_linear_1_2)" stroke-width="14.3922"/>
</g>
<g filter="url(#filter7_f_1_2)">
<path d="M363.077 529.643C184.719 603.059 -180.59 784.41 -214.958 922.49" stroke="url(#paint10_linear_1_2)" stroke-width="14.3922"/>
</g>
<g filter="url(#filter8_f_1_2)">
<path d="M1678.06 50.0541C1560.99 203.333 1291.27 509.257 1149 506.716" stroke="url(#paint11_linear_1_2)" stroke-width="14.3922"/>
</g>
<g filter="url(#filter9_f_1_2)">
<path d="M1824.78 352.061C1646.75 426.266 1260.2 556.343 1138.26 483.008" stroke="url(#paint12_linear_1_2)" stroke-width="14.3922"/>
</g>
<g filter="url(#filter10_f_1_2)">
<path d="M1828.59 594.929C1635.94 604.21 1228.19 595.168 1138.44 484.755" stroke="url(#paint13_linear_1_2)" stroke-width="14.3922"/>
</g>
<g filter="url(#filter11_f_1_2)">
<path d="M1107 529.643C1285.36 603.059 1650.67 784.41 1685.03 922.49" stroke="url(#paint14_linear_1_2)" stroke-width="14.3922"/>
</g>
<g filter="url(#filter12_f_1_2)">
<path d="M-244.278 770.425C-33.8261 808.206 160.426 707.112 189.596 544.625C218.767 382.138 71.8093 219.789 -138.642 182.007C-349.094 144.226 -543.346 245.32 -572.516 407.807C-601.686 570.294 -454.729 732.643 -244.278 770.425Z" fill="#010101"/>
</g>
<g filter="url(#filter13_f_1_2)">
<path d="M1488.06 775.585C1698.51 813.366 1888.82 734.264 1913.12 598.906C1937.42 463.548 1786.51 323.19 1576.06 285.409C1365.61 247.628 1175.3 326.73 1151 462.088C1126.7 597.446 1277.61 737.804 1488.06 775.585Z" fill="#010101"/>
</g>
</g>
</g>
<defs>
<filter id="filter0_f_1_2" x="168.14" y="280.349" width="1101.93" height="396.787" filterUnits="userSpaceOnUse" color-interpolation-filters="sRGB">
<feFlood flood-opacity="0" result="BackgroundImageFix"/>
<feBlend mode="normal" in="SourceGraphic" in2="BackgroundImageFix" result="shape"/>
<feGaussianBlur stdDeviation="44.6684" result="effect1_foregroundBlur_1_2"/>
</filter>
<filter id="filter1_i_1_2" x="-389" y="-31.9813" width="2218.18" height="1055.7" filterUnits="userSpaceOnUse" color-interpolation-filters="sRGB">
<feFlood flood-opacity="0" result="BackgroundImageFix"/>
<feBlend mode="normal" in="SourceGraphic" in2="BackgroundImageFix" result="shape"/>
<feColorMatrix in="SourceAlpha" type="matrix" values="0 0 0 0 0 0 0 0 0 0 0 0 0 0 0 0 0 0 127 0" result="hardAlpha"/>
<feOffset dy="-15.9813"/>
<feGaussianBlur stdDeviation="27.5012"/>
<feComposite in2="hardAlpha" operator="arithmetic" k2="-1" k3="1"/>
<feColorMatrix type="matrix" values="0 0 0 0 0.738533 0 0 0 0 0.383333 0 0 0 0 1 0 0 0 0.37 0"/>
<feBlend mode="normal" in2="shape" result="effect1_innerShadow_1_2"/>
</filter>
<filter id="filter2_f_1_2" x="549.729" y="471.006" width="369.046" height="38.9587" filterUnits="userSpaceOnUse" color-interpolation-filters="sRGB">
<feFlood flood-opacity="0" result="BackgroundImageFix"/>
<feBlend mode="normal" in="SourceGraphic" in2="BackgroundImageFix" result="shape"/>
<feGaussianBlur stdDeviation="4.52804" result="effect1_foregroundBlur_1_2"/>
</filter>
<filter id="filter3_f_1_2" x="456.975" y="455.035" width="554.674" height="58.5548" filterUnits="userSpaceOnUse" color-interpolation-filters="sRGB">
<feFlood flood-opacity="0" result="BackgroundImageFix"/>
<feBlend mode="normal" in="SourceGraphic" in2="BackgroundImageFix" result="shape"/>
<feGaussianBlur stdDeviation="6.80561" result="effect1_foregroundBlur_1_2"/>
</filter>
<filter id="filter4_f_1_2" x="-284.968" y="-25.5762" width="677.44" height="610.766" filterUnits="userSpaceOnUse" color-interpolation-filters="sRGB">
<feFlood flood-opacity="0" result="BackgroundImageFix"/>
<feBlend mode="normal" in="SourceGraphic" in2="BackgroundImageFix" result="shape"/>
<feGaussianBlur stdDeviation="35.6311" result="effect1_foregroundBlur_1_2"/>
</filter>
<filter id="filter5_f_1_2" x="-428.734" y="274.157" width="835.519" height="309.004" filterUnits="userSpaceOnUse" color-interpolation-filters="sRGB">
<feFlood flood-opacity="0" result="BackgroundImageFix"/>
<feBlend mode="normal" in="SourceGraphic" in2="BackgroundImageFix" result="shape"/>
<feGaussianBlur stdDeviation="35.6311" result="effect1_foregroundBlur_1_2"/>
</filter>
<filter id="filter6_f_1_2" x="-430.122" y="408.954" width="838.611" height="267.18" filterUnits="userSpaceOnUse" color-interpolation-filters="sRGB">
<feFlood flood-opacity="0" result="BackgroundImageFix"/>
<feBlend mode="normal" in="SourceGraphic" in2="BackgroundImageFix" result="shape"/>
<feGaussianBlur stdDeviation="35.6311" result="effect1_foregroundBlur_1_2"/>
</filter>
<filter id="filter7_f_1_2" x="-293.203" y="451.726" width="730.281" height="543.764" filterUnits="userSpaceOnUse" color-interpolation-filters="sRGB">
<feFlood flood-opacity="0" result="BackgroundImageFix"/>
<feBlend mode="normal" in="SourceGraphic" in2="BackgroundImageFix" result="shape"/>
<feGaussianBlur stdDeviation="35.6311" result="effect1_foregroundBlur_1_2"/>
</filter>
<filter id="filter8_f_1_2" x="1077.61" y="-25.576" width="677.432" height="610.766" filterUnits="userSpaceOnUse" color-interpolation-filters="sRGB">
<feFlood flood-opacity="0" result="BackgroundImageFix"/>
<feBlend mode="normal" in="SourceGraphic" in2="BackgroundImageFix" result="shape"/>
<feGaussianBlur stdDeviation="35.6311" result="effect1_foregroundBlur_1_2"/>
</filter>
<filter id="filter9_f_1_2" x="1063.29" y="274.157" width="835.522" height="309.004" filterUnits="userSpaceOnUse" color-interpolation-filters="sRGB">
<feFlood flood-opacity="0" result="BackgroundImageFix"/>
<feBlend mode="normal" in="SourceGraphic" in2="BackgroundImageFix" result="shape"/>
<feGaussianBlur stdDeviation="35.6311" result="effect1_foregroundBlur_1_2"/>
</filter>
<filter id="filter10_f_1_2" x="1061.59" y="408.954" width="838.605" height="267.18" filterUnits="userSpaceOnUse" color-interpolation-filters="sRGB">
<feFlood flood-opacity="0" result="BackgroundImageFix"/>
<feBlend mode="normal" in="SourceGraphic" in2="BackgroundImageFix" result="shape"/>
<feGaussianBlur stdDeviation="35.6311" result="effect1_foregroundBlur_1_2"/>
</filter>
<filter id="filter11_f_1_2" x="1033" y="451.726" width="730.277" height="543.764" filterUnits="userSpaceOnUse" color-interpolation-filters="sRGB">
<feFlood flood-opacity="0" result="BackgroundImageFix"/>
<feBlend mode="normal" in="SourceGraphic" in2="BackgroundImageFix" result="shape"/>
<feGaussianBlur stdDeviation="35.6311" result="effect1_foregroundBlur_1_2"/>
</filter>
<filter id="filter12_f_1_2" x="-773.575" y="-23.2776" width="1164.23" height="998.987" filterUnits="userSpaceOnUse" color-interpolation-filters="sRGB">
<feFlood flood-opacity="0" result="BackgroundImageFix"/>
<feBlend mode="normal" in="SourceGraphic" in2="BackgroundImageFix" result="shape"/>
<feGaussianBlur stdDeviation="98.6846" result="effect1_foregroundBlur_1_2"/>
</filter>
<filter id="filter13_f_1_2" x="951.067" y="78.6071" width="1161.99" height="903.78" filterUnits="userSpaceOnUse" color-interpolation-filters="sRGB">
<feFlood flood-opacity="0" result="BackgroundImageFix"/>
<feBlend mode="normal" in="SourceGraphic" in2="BackgroundImageFix" result="shape"/>
<feGaussianBlur stdDeviation="98.6846" result="effect1_foregroundBlur_1_2"/>
</filter>
<radialGradient id="paint0_radial_1_2" cx="0" cy="0" r="1" gradientUnits="userSpaceOnUse" gradientTransform="translate(712.198 478.755) rotate(153.395) scale(374.273 256.393)">
<stop stop-color="#BBE3C8"/>
<stop offset="0.25" stop-color="#1CB8A2"/>
<stop offset="0.55" stop-color="#08756F"/>
<stop offset="0.8" stop-color="#0E311D"/>
</radialGradient>
<radialGradient id="paint1_radial_1_2" cx="0" cy="0" r="1" gradientUnits="userSpaceOnUse" gradientTransform="translate(723.343 495.508) rotate(90.1421) scale(150.152 518.356)">
<stop stop-color="white"/>
<stop offset="0.45" stop-color="#60DD81" stop-opacity="0"/>
</radialGradient>
<radialGradient id="paint2_radial_1_2" cx="0" cy="0" r="1" gradientUnits="userSpaceOnUse" gradientTransform="translate(621.331 491.486) rotate(90.1421) scale(150.152 518.356)">
<stop stop-color="white"/>
<stop offset="0.45" stop-color="#60DD81" stop-opacity="0"/>
</radialGradient>
<radialGradient id="paint3_radial_1_2" cx="0" cy="0" r="1" gradientUnits="userSpaceOnUse" gradientTransform="translate(703.5 504) rotate(135) scale(1135.61 967.826)">
<stop stop-color="#BBE3C8"/>
<stop offset="0.25" stop-color="#1CB8A2"/>
<stop offset="0.55" stop-color="#08756F"/>
<stop offset="0.8" stop-color="#0E311D"/>
</radialGradient>
<linearGradient id="paint4_linear_1_2" x1="568" y1="506.458" x2="887" y2="506.458" gradientUnits="userSpaceOnUse">
<stop stop-color="white" stop-opacity="0"/>
<stop offset="0.225" stop-color="white"/>
<stop offset="0.72" stop-color="white"/>
<stop offset="1" stop-color="white" stop-opacity="0"/>
</linearGradient>
<linearGradient id="paint5_linear_1_2" x1="568" y1="506.458" x2="887" y2="506.458" gradientUnits="userSpaceOnUse">
<stop stop-color="white" stop-opacity="0"/>
<stop offset="0.225" stop-color="white"/>
<stop offset="0.72" stop-color="white"/>
<stop offset="1" stop-color="white" stop-opacity="0"/>
</linearGradient>
<linearGradient id="paint6_linear_1_2" x1="484.436" y1="508.319" x2="963.891" y2="508.319" gradientUnits="userSpaceOnUse">
<stop stop-color="white" stop-opacity="0"/>
<stop offset="0.225" stop-color="white"/>
<stop offset="0.72" stop-color="white"/>
<stop offset="1" stop-color="white" stop-opacity="0"/>
</linearGradient>
<linearGradient id="paint7_linear_1_2" x1="-218.784" y1="39.2568" x2="303.932" y2="523.23" gradientUnits="userSpaceOnUse">
<stop stop-color="white" stop-opacity="0"/>
<stop offset="0.269932" stop-color="white"/>
<stop offset="0.75" stop-color="#A0A0A0"/>
<stop offset="1" stop-color="white" stop-opacity="0"/>
</linearGradient>
<linearGradient id="paint8_linear_1_2" x1="-369.452" y1="348.109" x2="325.22" y2="505.883" gradientUnits="userSpaceOnUse">
<stop stop-color="white" stop-opacity="0"/>
<stop offset="0.269932" stop-color="white"/>
<stop offset="0.75" stop-color="#A0A0A0"/>
<stop offset="1" stop-color="white" stop-opacity="0"/>
</linearGradient>
<linearGradient id="paint9_linear_1_2" x1="-373.728" y1="596.225" x2="333.215" y2="508.51" gradientUnits="userSpaceOnUse">
<stop stop-color="white" stop-opacity="0"/>
<stop offset="0.269932" stop-color="white"/>
<stop offset="0.75" stop-color="#A0A0A0"/>
<stop offset="1" stop-color="white" stop-opacity="0"/>
</linearGradient>
<linearGradient id="paint10_linear_1_2" x1="376.301" y1="522.008" x2="-226.47" y2="901.652" gradientUnits="userSpaceOnUse">
<stop stop-color="white" stop-opacity="0"/>
<stop offset="0.269932" stop-color="white"/>
<stop offset="0.75" stop-color="#0ED925"/>
<stop offset="1" stop-color="white" stop-opacity="0"/>
</linearGradient>
<linearGradient id="paint11_linear_1_2" x1="1688.86" y1="39.2568" x2="1166.14" y2="523.23" gradientUnits="userSpaceOnUse">
<stop stop-color="white" stop-opacity="0"/>
<stop offset="0.269932" stop-color="white"/>
<stop offset="0.75" stop-color="#A0A0A0"/>
<stop offset="1" stop-color="white" stop-opacity="0"/>
</linearGradient>
<linearGradient id="paint12_linear_1_2" x1="1839.53" y1="348.109" x2="1144.86" y2="505.884" gradientUnits="userSpaceOnUse">
<stop stop-color="white" stop-opacity="0"/>
<stop offset="0.269932" stop-color="white"/>
<stop offset="0.75" stop-color="#A0A0A0"/>
<stop offset="1" stop-color="white" stop-opacity="0"/>
</linearGradient>
<linearGradient id="paint13_linear_1_2" x1="1843.8" y1="596.225" x2="1136.86" y2="508.51" gradientUnits="userSpaceOnUse">
<stop stop-color="white" stop-opacity="0"/>
<stop offset="0.269932" stop-color="white"/>
<stop offset="0.75" stop-color="#A0A0A0"/>
<stop offset="1" stop-color="white" stop-opacity="0"/>
</linearGradient>
<linearGradient id="paint14_linear_1_2" x1="1093.78" y1="522.008" x2="1696.55" y2="901.652" gradientUnits="userSpaceOnUse">
<stop stop-color="white" stop-opacity="0"/>
<stop offset="0.269932" stop-color="white"/>
<stop offset="0.75" stop-color="#A0A0A0"/>
<stop offset="1" stop-color="white" stop-opacity="0"/>
</linearGradient>
<clipPath id="clip0_1_2">
<rect width="1440" height="1024" fill="white"/>
</clipPath>
</defs>
</svg>
